# xmcd
#
# Track frame offsets:
#	182
#	12630
#	24822
#	36937
#	47815
#	61015
#	72817
#	82520
#	96747
#	106102
#	115450
#	128135
#	142272
#	154407
#	164920
#	186845
#	199535
#	214895
#
# Disc length: 3006 seconds
# Revision: 2
# Processed by: cddbd v1.5.2PL0 Copyright (c) Steve Scherf et al.
# Submitted via: dBpowerAMP V12.0
#
DISCID=030bbc12
DTITLE=Various Artist - Appalachian Stomp: Bluegrass Classics
DYEAR=1950
DGENRE=Bluegrass
TTITLE0=Bill Monroe and His Blue Grass Boys - Uncle Pen [Monroe 1950]
TTITLE1=Lester Flatt, Earl Scruggs and The Foggy Mountain Boys - Foggy Mountain Breakdown [Scruggs 1949]
TTITLE2=The Stanley Brothers and The Clinch Mountain Boys - This Weary Heart You Stole Away (Wake Up, Sweetheart) [Stanley 1953]
TTITLE3=Jim and Jesse (McReynolds Bros.) and The Virginia Boys - Are You Missing Me? [Louvin and Louvin 1952]
TTITLE4=Jimmy Martin - You Don't Know My Mind [Skinner 1950]
TTITLE5=Osborne Brothers - Rocky Top [Bryant and Bryant 1967]
TTITLE6=Bill Monroe and His Blue Grass Boys - Blue Moon of Kentucky [Monroe 1946]
TTITLE7=The Stanley Brothers - Orange Blossom Special [Rouse 1938]
TTITLE8=Lester Flatt, Earl Scruggs and The Foggy Mountain Boys - The Ballad of Jed Clampett [Henning 1962]
TTITLE9=The Dilliards - Dooley [Jayne and Dillard 1962]
TTITLE10=The Kentucky Colonels - Nine Pound Hammer [Travis 1946]
TTITLE11=The Country Gentlemen - Roving Gambler
TTITLE12=Del McCoury - Roll in My Sweet Baby's Arms
TTITLE13=Eric Weissberg [banjo] - Dueling Banjos
TTITLE14=Nitty Gritty Dirt Band - Will the Circle Be Unbroken [1907,1935]
TTITLE15=J.D. Crowe and The New South - Old Home Place [Jayne and Webb 1963]
TTITLE16=Ricky Skaggs - Little Cabin Home on the Hill [Flatt and Monroe 1948]
TTITLE17=Alison Krauss and Union Station - Love You in Vain [Pennell 1989]
EXTD=
EXTT0=
EXTT1=
EXTT2=
EXTT3=
EXTT4=
EXTT5=
EXTT6=
EXTT7=
EXTT8=
EXTT9=
EXTT10=
EXTT11=
EXTT12=
EXTT13=
EXTT14=
EXTT15=
EXTT16=
EXTT17=
PLAYORDER=
